<?xml version="1.0" encoding="UTF-8" standalone="no"?>
<!-- Created with Inkscape (http://www.inkscape.org/) -->

<svg
   version="1.1"
   id="svg2"
   width="511.79282"
   height="383.54822"
   viewBox="0 0 511.79282 383.54822"
   xmlns="http://www.w3.org/2000/svg"
   xmlns:svg="http://www.w3.org/2000/svg">
  <defs
     id="defs6" />
  <g
     id="g8"
     transform="translate(-0.48167333,-57.117941)">
    <path
       style="fill:#fdf0d5;fill-opacity:1"
       d="m 53.892262,439.95453 c -12.27188,-2.069 -25.5224,-8.94253 -34.45069,-17.87082 -7.07635,-7.07635 -12.0784896,-15.20246 -15.7450896,-25.57832 l -2.82363002,-7.9904 -0.27439,-135.45928 C 0.29552238,103.50509 0.09672238,108.78215 6.5619124,94.755754 13.012602,80.760794 23.065452,70.516394 36.883612,63.856294 c 15.18795,-7.32032 1.16202,-6.9056 223.490138,-6.60818 l 199.4991,0.26688 7.9904,2.82363 c 17.31262,6.1179 29.40081,16.55925 37.01519,31.9724 7.95998,16.112736 7.57885,7.68429 7.2688,160.744686 l -0.27439,135.45928 -2.7393,8.07841 c -6.8795,20.28818 -21.39355,34.23598 -43.2607,41.57292 l -7,2.34867 -200,0.13963 c -110,0.0768 -202.241258,-0.23825 -204.980588,-0.70009 z M 418.84507,397.12499 c -1.80692,-1.73159 -115.65479,-87.86873 -118.28516,-89.49439 -0.66637,-0.41184 -7.99352,4.4844 -17.45942,11.66695 -16.79902,12.74677 -20.37785,14.71744 -26.72764,14.71744 -6.34706,0 -9.92753,-1.96983 -26.66566,-14.67042 -8.93706,-6.78127 -16.5057,-12.32958 -16.81921,-12.32958 -0.84411,0 -120.274118,89.80103 -121.006928,90.98673 -0.42199,0.6828 53.116318,1.01327 164.155008,1.01327 161.61338,0 164.74332,-0.0363 162.80901,-1.89 z m 50.89749,-18.36 c 0.33164,-1.2375 0.60913,-46.73564 0.61664,-101.10699 0.0121,-87.78812 -0.15554,-98.79206 -1.49744,-98.27713 -2.51809,0.96628 -133.42013,100.0799 -133.19666,100.85101 0.24032,0.82928 131.889,100.6583 132.84112,100.73325 0.34835,0.0274 0.90471,-0.96264 1.23634,-2.20014 z m -358.39919,-48.92768 66.0983,-49.67769 -66.51256,-50.07231 C 74.347202,202.54753 43.956712,180.01499 43.394702,180.01499 c -1.12156,0 -1.51436,195.55297 -0.39864,198.46048 0.34276,0.89323 0.98901,1.49253 1.43611,1.33178 0.44709,-0.16074 30.55713,-22.64722 66.911198,-49.96994 z m 167.71838,-60.62298 c 11.99611,-9.24036 59.98086,-45.5378 106.6328,-80.66097 l 84.8217,-63.8603 -0.65003,-5.08904 c -0.89398,-6.99892 -4.98645,-13.38094 -10.94139,-17.06259 l -4.89514,-3.026436 H 256.37285 58.716012 l -4.89514,3.026436 c -6.1658,3.81201 -10.10286,10.09185 -10.95482,17.47356 l -0.63478,5.5 6.82079,5.1219 c 3.75143,2.81704 51.803858,38.92954 106.783158,80.25 54.9793,41.32045 100.28931,75.1281 100.6889,75.1281 0.3996,0 10.54153,-7.5603 22.53763,-16.80066 z"
       id="path827" />
  </g>
</svg>
