<?xml version="1.0" encoding="UTF-8" standalone="no"?>
<!-- Created with Inkscape (http://www.inkscape.org/) -->

<svg
   version="1.1"
   id="svg2"
   width="255.43832"
   height="244"
   viewBox="0 0 255.43832 244"
   xmlns="http://www.w3.org/2000/svg"
   xmlns:svg="http://www.w3.org/2000/svg">
  <defs
     id="defs6" />
  <g
     id="g8"
     transform="translate(0.92363188,-5.7393329)">
    <path
       style="fill:#fdf0d5;fill-opacity:1"
       d="M 1.5146489,167.23933 V 84.739333 h 27.5000001 27.5 v 82.499997 82.5 h -27.5 -27.5000001 z m 86.0000001,0 V 84.739333 h 27.000001 27 l 0.0335,11.75 0.0335,11.749997 3.15819,-4 c 8.66367,-10.972948 18.65135,-17.786278 30.82009,-21.024653 7.07867,-1.88379 24.65759,-1.869494 32.69936,0.02659 19.56995,4.614203 34.14026,18.435543 41.34819,39.222763 4.29191,12.37761 4.89497,21.73191 4.90121,76.0253 l 0.006,51.25 H 227.06505 199.6154 l -0.30035,-51.25 c -0.28999,-49.48085 -0.37317,-51.42715 -2.40943,-56.38196 -3.18726,-7.75548 -6.93005,-12.00477 -13.17677,-14.95994 -4.91232,-2.3239 -6.50204,-2.5888 -13.15097,-2.19144 -4.95952,0.2964 -8.95569,1.16853 -11.60814,2.53338 -5.1963,2.67383 -12.03516,10.10446 -14.79416,16.07429 -2.10986,4.56525 -2.16851,5.8742 -2.48367,55.42567 l -0.32278,50.75 H 114.44191 87.514689 Z m -66,-105.857952 C 7.0953089,58.10741 -0.79409111,48.539426 -0.92228111,34.170646 -1.0734811,17.224405 11.481929,5.7393329 30.158639,5.7393329 c 17.18646,0 29.60749,11.7090161 29.67586,27.9747471 0.0813,19.334016 -17.88634,32.306807 -38.31985,27.667298 z"
       id="path500" />
  </g>
</svg>
