<?xml version="1.0" encoding="UTF-8" standalone="no"?>
<!-- Generator: Adobe Illustrator 25.0.0, SVG Export Plug-In . SVG Version: 6.00 Build 0)  -->

<svg
   version="1.1"
   id="Layer_1"
   x="0px"
   y="0px"
   viewBox="0 0 83.199995 83.199997"
   xml:space="preserve"
   width="83.199997"
   height="83.199997"
   xmlns="http://www.w3.org/2000/svg"
   xmlns:svg="http://www.w3.org/2000/svg"><defs
   id="defs51" />
<style
   type="text/css"
   id="style2">
	.st0{fill:#12233B;}
	.st1{fill-rule:evenodd;clip-rule:evenodd;fill:#F3D25E;}
	.st2{fill:#638BC4;}
	.st3{fill:#305CA5;}
	.st4{fill:#273D72;}
</style>
<g
   id="Logo__x2B__Wordmark">
	
	<g
   id="S2_Logo_1_">
		
		
		
		<g
   id="g1045"
   transform="translate(0,11.599998)"><g
     id="g38">
			<path
   class="st1"
   d="m 83.2,18.3 c -2.9,1.8 -5,2.9 -7.4,4.3 C 61.4,31.3 47.5,41 36.8,53.7 L 31.6,60 15.8,34.8 c 3.5,2.8 12.4,10.7 16,12.5 l 11.6,-8.8 c 8.1,-5.7 31,-18.1 39.8,-20.2 z"
   id="path36"
   style="fill:#fdf0d5;fill-opacity:1" />
		</g><path
     class="st2"
     d="m 23.2,37.1 c 0.4,0.3 0.7,0.6 1.1,0.9 -3.1,-8.7 -8.6,-17.4 -16.4,-24.9 -2.6,0 -5.2,0 -7.9,0 10,7.2 17.8,15.6 23.2,24 z"
     id="path40"
     style="fill:#fdf0d5;fill-opacity:1" /><path
     class="st3"
     d="m 25.8,39.4 c 0.3,0.3 0.7,0.5 1,0.8 C 26.3,28.4 21.9,16.3 13.5,5.9 c -2.5,0 -5,0 -7.5,0 10.7,9.9 17.3,21.9 19.8,33.5 z"
     id="path42"
     style="fill:#fdf0d5;fill-opacity:1" /><path
     class="st4"
     d="m 27.9,41.1 c 1.2,1 2.4,1.9 3.4,2.6 C 33.9,31 31.7,17.3 24.8,5.4 36.5,5.2 48.2,5.1 59.8,4.9 c 2.6,5.8 4.1,12 4.5,18.4 1,-0.5 2,-1 3.1,-1.5 C 66.9,15.2 65.1,8.2 61.6,0 45.6,0 29.7,0 13.7,0 24.1,12.3 28.8,27.2 27.9,41.1 Z"
     id="path44"
     style="fill:#fdf0d5;fill-opacity:1" /></g>
	</g>
</g>
</svg>
